<svg xmlns="http://www.w3.org/2000/svg" width="22.07" height="22.07" viewBox="0 0 22.07 22.07"><path d="M2.833,0h16.4A2.766,2.766,0,0,1,22.07,2.833V19.238a2.766,2.766,0,0,1-2.833,2.833H2.833A2.766,2.766,0,0,1,0,19.238V2.833A2.766,2.766,0,0,1,2.833,0ZM16.077,2.452a1,1,0,0,0-.993.994V5.824a1,1,0,0,0,.993.994h2.494a1,1,0,0,0,.994-.994V3.446a1,1,0,0,0-.994-.994Zm3.5,6.881H17.633a6.455,6.455,0,0,1,.283,1.893,6.756,6.756,0,0,1-6.86,6.647A6.756,6.756,0,0,1,4.2,11.227,6.444,6.444,0,0,1,4.48,9.333H2.453v9.323a.88.88,0,0,0,.877.877H18.7a.88.88,0,0,0,.877-.877V9.333Zm-8.52-2.641a4.365,4.365,0,0,0-4.432,4.295,4.365,4.365,0,0,0,4.432,4.295,4.366,4.366,0,0,0,4.433-4.295A4.365,4.365,0,0,0,11.056,6.692Z" fill="#373739"/></svg>