<svg xmlns="http://www.w3.org/2000/svg" width="24.21" height="19.666" viewBox="0 0 24.21 19.666"><g transform="translate(0 0)"><path d="M24.211,59.768a9.918,9.918,0,0,1-2.852.782A4.987,4.987,0,0,0,23.543,57.8a10.012,10.012,0,0,1-3.156,1.206,4.97,4.97,0,0,0-8.463,4.528A14.1,14.1,0,0,1,1.688,58.349a4.972,4.972,0,0,0,1.537,6.629,4.967,4.967,0,0,1-2.25-.623v.062a4.971,4.971,0,0,0,3.983,4.87,5.03,5.03,0,0,1-1.309.174,4.767,4.767,0,0,1-.935-.092,4.969,4.969,0,0,0,4.638,3.449A9.965,9.965,0,0,1,1.186,74.94,10.558,10.558,0,0,1,0,74.872a14.039,14.039,0,0,0,7.613,2.235,14.033,14.033,0,0,0,14.13-14.13l-.017-.643A9.918,9.918,0,0,0,24.211,59.768Z" transform="translate(-0.001 -57.441)" fill="#373739"/></g></svg>